# xmcd
#
# Track frame offsets: 
#        182
#        16802
#        28155
#        41482
#        48190
#        56597
#        67655
#        75955
#        94235
#        108015
#        132402
#        152395
#        164292
#
# Disc length: 2372 seconds
#
# Revision: 1
# Processed by: cddbd v1.5.2PL0 Copyright (c) Steve Scherf et al.
# Submitted via: ExactAudioCopy v1.0b4
#
DISCID=8d09420d
DTITLE=Leontyne Price - Christmas Songs
DYEAR=1995
DGENRE=Christmas
TTITLE0=Gruber - Silent Night
TTITLE1=Mendelssohn - Hark! The Herald Angels Sing
TTITLE2=Hopkins - We Three Kings Of Orient Are
TTITLE3=Traditional - Angels We Have Heard On High
TTITLE4=Traditional - O Tannenbaum
TTITLE5=Traditional - God Rest Ye Merry Gentlemen
TTITLE6=Willis - It Came Upon A Midnight Clear
TTITLE7=Bach - Vom Himmel Hoch, Da Komm...
TTITLE8=Traditional - Sweet Li'l Jesus
TTITLE9=Schubert - Ave Maria-Schubert
TTITLE10=Adam - O Holy Night
TTITLE11=Bach, Gounod - Ave Maria-Bach
TTITLE12=Mozart - Alleluia
EXTD=
EXTT0=
EXTT1=
EXTT2=
EXTT3=
EXTT4=
EXTT5=
EXTT6=
EXTT7=
EXTT8=
EXTT9=
EXTT10=
EXTT11=
EXTT12=
PLAYORDER=
